<?xml version="1.0" encoding="UTF-8" standalone="no"?>
<!DOCTYPE svg PUBLIC "-//W3C//DTD SVG 1.1//EN" "http://www.w3.org/Graphics/SVG/1.1/DTD/svg11.dtd">
<svg
   xmlns:svg="http://www.w3.org/2000/svg"
   xmlns="http://www.w3.org/2000/svg"
   version="1.1"
   id="svg3954"
   viewBox="0 0 200 200"
   height="200"
   width="200">
  <defs
     id="defs3956">
    <clipPath
       clipPathUnits="userSpaceOnUse"
       id="clipPath3549">
      <path
         id="path11"
         d="m 132.243,408.02 60.512,0 0,60.512 -60.512,0 0,-60.512 z" />
    </clipPath>
    <clipPath
       clipPathUnits="userSpaceOnUse"
       id="clipPath3625">
      <path
         id="path14"
         d="m 155.499,460.699 c 0.224,-8.143 2.596,-12.025 6.8,-13.435 4.236,1.396 6.626,5.212 6.851,13.387 -2.267,1.163 -4.534,2.021 -6.8,1.697 -0.356,0.053 -0.712,0.078 -1.068,0.078 -1.928,0 -3.855,-0.739 -5.783,-1.727" />
    </clipPath>
    <clipPath
       clipPathUnits="userSpaceOnUse"
       id="clipPath3645">
      <path
         id="path17"
         d="m 132.243,408.02 60.512,0 0,60.512 -60.512,0 0,-60.512 z" />
    </clipPath>
  </defs>
  <g
     transform="translate(0,-852.36216)"
     id="layer1">
    <g
       id="g155"
       transform="matrix(2.087674,0,0,2.1197841,-564.88043,631.16412)">
      <g
         id="g157"
         transform="matrix(1.2032163,0,0,1.1849804,-4.4298483,-245.60588)">
        <g
           id="g159"
           transform="matrix(1.25,0,0,-1.25,65.247321,882.98113)">
          <g
             id="g161"
             clip-path="url(#clipPath3549)">
            <g
               id="g163"
               transform="translate(162.4996,468.5319)">
              <path
                 id="path165"
                 d="m 0,0 c 16.707,0 30.256,-13.549 30.256,-30.256 0,-16.707 -13.549,-30.257 -30.256,-30.257 -16.707,0 -30.256,13.55 -30.256,30.257 C -30.256,-13.549 -16.707,0 0,0"
                 style="fill:#e3000f;fill-rule:evenodd" />
            </g>
            <g
               id="g167"
               transform="translate(171.4497,413.9666)">
              <path
                 id="path169"
                 d="m 0,0 0.874,0.408 c 0.26,0.121 0.49,0.206 0.691,0.257 0.2,0.049 0.376,0.064 0.529,0.045 C 2.378,0.673 2.625,0.572 2.837,0.405 3.048,0.238 3.222,0.008 3.359,-0.286 3.496,-0.58 3.559,-0.861 3.55,-1.13 3.54,-1.398 3.456,-1.653 3.298,-1.895 3.211,-2.033 3.082,-2.165 2.911,-2.29 2.74,-2.416 2.52,-2.542 2.251,-2.668 L 1.424,-3.053 0,0 Z"
                 style="fill:#ffffff" />
            </g>
            <g
               id="g171"
               transform="translate(172.2669,413.7959)">
              <path
                 id="path173"
                 d="m 0,0 0.993,-2.129 0.348,0.162 c 0.338,0.158 0.557,0.374 0.657,0.649 0.1,0.276 0.071,0.582 -0.086,0.92 C 1.751,-0.054 1.536,0.165 1.265,0.258 0.993,0.352 0.681,0.318 0.331,0.154 L 0,0 Z"
                 style="fill:#e3000f" />
            </g>
            <g
               id="g175"
               transform="translate(169.1849,413.3198)">
              <path
                 id="path177"
                 d="M 0,0 0.638,0.183 1.425,-2.561 2.724,-2.188 2.866,-2.683 0.929,-3.239 0,0 Z"
                 style="fill:#ffffff" />
            </g>
            <g
               id="g179"
               transform="translate(166.3823,412.6769)">
              <path
                 id="path181"
                 d="M 0,0 2.02,0.393 2.113,-0.082 0.744,-0.349 0.914,-1.226 2.211,-0.973 2.306,-1.46 1.009,-1.712 1.197,-2.68 2.615,-2.405 2.712,-2.905 0.643,-3.307 0,0 Z"
                 style="fill:#ffffff" />
            </g>
            <g
               id="g183"
               transform="translate(163.8142,412.4442)">
              <path
                 id="path185"
                 d="M 0,0 1.953,0.171 1.996,-0.318 0.709,-0.43 0.789,-1.345 2.02,-1.238 2.063,-1.731 0.832,-1.839 0.959,-3.298 0.294,-3.356 0,0 Z"
                 style="fill:#ffffff" />
            </g>
            <g
               id="g187"
               transform="translate(161.0334,412.4579)">
              <path
                 id="path189"
                 d="M 0,0 2.057,-0.072 2.04,-0.555 0.646,-0.507 0.615,-1.4 1.936,-1.446 1.919,-1.941 0.598,-1.895 0.563,-2.881 2.007,-2.931 1.989,-3.441 -0.117,-3.367 0,0 Z"
                 style="fill:#ffffff" />
            </g>
            <g
               id="g191"
               transform="translate(158.5037,412.7279)">
              <path
                 id="path193"
                 d="M 0,0 0.657,-0.092 0.26,-2.919 1.598,-3.107 1.527,-3.617 -0.469,-3.336 0,0 Z"
                 style="fill:#ffffff" />
            </g>
            <g
               id="g195"
               transform="translate(155.6907,413.3222)">
              <path
                 id="path197"
                 d="M 0,0 2.005,-0.463 1.896,-0.935 0.538,-0.621 0.337,-1.492 1.624,-1.789 1.513,-2.271 0.225,-1.974 0.003,-2.935 1.411,-3.26 1.296,-3.757 -0.758,-3.283 0,0 Z"
                 style="fill:#ffffff" />
            </g>
            <g
               id="g199"
               transform="translate(154.2671,413.7698)">
              <path
                 id="path201"
                 d="M 0,0 0.628,-0.216 -0.469,-3.402 -1.097,-3.186 0,0 Z"
                 style="fill:#ffffff" />
            </g>
            <g
               id="g203"
               transform="translate(151.404,414.9125)">
              <path
                 id="path205"
                 d="M 0,0 1.012,-0.472 C 1.364,-0.636 1.599,-0.827 1.718,-1.046 1.838,-1.264 1.837,-1.503 1.716,-1.763 1.639,-1.928 1.523,-2.048 1.369,-2.119 1.216,-2.19 1.038,-2.208 0.834,-2.173 1.025,-2.314 1.146,-2.474 1.199,-2.654 1.251,-2.833 1.231,-3.021 1.14,-3.216 1.011,-3.492 0.813,-3.656 0.546,-3.708 0.279,-3.759 -0.049,-3.695 -0.435,-3.515 L -1.424,-3.054 0,0 Z"
                 style="fill:#ffffff" />
            </g>
            <g
               id="g207"
               transform="translate(151.7969,414.206)">
              <path
                 id="path209"
                 d="m 0,0 -0.393,-0.842 0.286,-0.133 c 0.198,-0.093 0.365,-0.127 0.501,-0.103 0.135,0.024 0.235,0.104 0.299,0.24 0.064,0.139 0.066,0.266 0.003,0.383 -0.063,0.116 -0.188,0.218 -0.373,0.305 L 0,0 Z"
                 style="fill:#e3000f" />
            </g>
            <g
               id="g211"
               transform="translate(151.2059,412.9385)">
              <path
                 id="path213"
                 d="m 0,0 -0.425,-0.912 0.323,-0.15 c 0.209,-0.098 0.386,-0.132 0.532,-0.105 0.146,0.028 0.255,0.117 0.325,0.268 0.068,0.146 0.07,0.281 0.003,0.405 C 0.693,-0.37 0.562,-0.262 0.365,-0.17 L 0,0 Z"
                 style="fill:#e3000f" />
            </g>
            <g
               id="g215"
               transform="translate(162.4996,461.6844)">
              <path
                 id="path217"
                 d="m 0,0 c 12.926,0 23.409,-10.483 23.409,-23.409 0,-12.926 -10.483,-23.409 -23.409,-23.409 -12.926,0 -23.409,10.483 -23.409,23.409 C -23.409,-10.483 -12.926,0 0,0"
                 style="fill:#004e9e;fill-rule:evenodd" />
            </g>
            <g
               id="g219"
               transform="translate(171.8953,426.9217)">
              <path
                 id="path221"
                 d="M 0,0 C 0.895,0 1.573,-0.316 2.036,-0.947 2.498,-1.58 2.729,-2.512 2.729,-3.745 2.729,-4.978 2.499,-5.91 2.041,-6.539 1.582,-7.169 0.901,-7.484 0,-7.484 c -0.897,0 -1.578,0.315 -2.038,0.945 -0.461,0.629 -0.691,1.561 -0.691,2.794 0,1.23 0.231,2.162 0.693,2.794 C -1.573,-0.318 -0.895,0 0,0 m 0,-1.266 c -0.326,0 -0.564,-0.199 -0.719,-0.599 -0.154,-0.398 -0.231,-1.019 -0.231,-1.859 0,-0.851 0.077,-1.477 0.231,-1.875 0.155,-0.4 0.393,-0.599 0.719,-0.599 0.319,0 0.554,0.201 0.707,0.6 0.152,0.402 0.228,1.026 0.228,1.874 0,0.844 -0.076,1.465 -0.227,1.863 C 0.558,-1.465 0.321,-1.266 0,-1.266 m -6.371,0.01 c -0.283,0 -0.503,-0.094 -0.662,-0.284 -0.16,-0.189 -0.239,-0.455 -0.239,-0.797 0,-0.325 0.081,-0.589 0.244,-0.794 0.163,-0.204 0.374,-0.307 0.636,-0.307 0.258,0 0.474,0.103 0.645,0.307 0.173,0.205 0.26,0.462 0.26,0.774 0,0.326 -0.083,0.59 -0.251,0.794 -0.168,0.204 -0.379,0.307 -0.633,0.307 m -2.307,-5.875 0.135,1.406 c 0.221,-0.13 0.457,-0.229 0.707,-0.296 0.249,-0.067 0.503,-0.1 0.762,-0.1 0.562,0 0.982,0.172 1.262,0.513 0.282,0.342 0.422,0.856 0.426,1.542 -0.188,-0.235 -0.407,-0.41 -0.659,-0.525 -0.251,-0.115 -0.535,-0.173 -0.855,-0.173 -0.626,0 -1.142,0.215 -1.545,0.645 -0.403,0.431 -0.606,0.981 -0.606,1.652 0,0.726 0.237,1.319 0.709,1.779 C -7.869,-0.23 -7.258,0 -6.507,0 c 0.904,0 1.603,-0.311 2.093,-0.93 0.491,-0.619 0.736,-1.504 0.736,-2.654 0,-1.252 -0.283,-2.207 -0.847,-2.864 -0.565,-0.657 -1.386,-0.985 -2.465,-0.985 -0.278,0 -0.556,0.026 -0.834,0.075 -0.278,0.05 -0.563,0.126 -0.854,0.227 m -3.936,4.095 c 0.289,0.137 0.498,0.289 0.628,0.454 0.131,0.167 0.196,0.362 0.196,0.587 0,0.225 -0.083,0.41 -0.249,0.557 -0.166,0.148 -0.377,0.222 -0.635,0.222 -0.259,0 -0.47,-0.076 -0.636,-0.228 -0.166,-0.153 -0.249,-0.347 -0.249,-0.582 0,-0.242 0.083,-0.449 0.247,-0.626 0.163,-0.175 0.396,-0.304 0.698,-0.384 m 1.256,-0.493 c 0.468,-0.181 0.823,-0.423 1.064,-0.729 0.238,-0.305 0.358,-0.671 0.358,-1.096 0,-0.643 -0.248,-1.16 -0.744,-1.547 -0.496,-0.39 -1.16,-0.583 -1.995,-0.583 -0.837,0 -1.506,0.19 -2.007,0.573 -0.501,0.382 -0.752,0.885 -0.752,1.507 0,0.45 0.127,0.829 0.379,1.139 0.254,0.309 0.611,0.524 1.074,0.64 -0.411,0.165 -0.722,0.388 -0.928,0.669 -0.206,0.281 -0.309,0.618 -0.309,1.011 0,0.583 0.234,1.051 0.699,1.405 0.466,0.353 1.087,0.53 1.864,0.53 0.781,0 1.393,-0.17 1.838,-0.51 0.444,-0.341 0.665,-0.809 0.665,-1.405 0,-0.358 -0.106,-0.677 -0.317,-0.959 -0.211,-0.279 -0.506,-0.494 -0.889,-0.645 m -1.412,-0.638 c -0.302,-0.127 -0.533,-0.286 -0.693,-0.475 -0.161,-0.189 -0.242,-0.398 -0.242,-0.626 0,-0.271 0.096,-0.499 0.287,-0.685 0.19,-0.183 0.429,-0.276 0.714,-0.276 0.281,0 0.516,0.093 0.703,0.28 0.187,0.185 0.281,0.42 0.281,0.701 0,0.235 -0.087,0.443 -0.261,0.623 -0.175,0.182 -0.437,0.335 -0.789,0.458 m -6.156,3.99 1.483,0 0,-7.141 -1.739,0 0,5.216 -1.328,-0.904 -0.844,1.236 2.428,1.593 z"
                 style="fill:#ffffff" />
            </g>
            <g
               id="g223"
               transform="translate(173.8094,444.1283)">
              <path
                 id="path225"
                 d="m 0,0 7.331,0 0,-1.724 -4.967,0 0,-3.182 4.707,0 0,-1.765 -4.707,0 0,-3.514 5.145,0 0,-1.816 -7.509,0 L 0,0 Z m -12.379,0 2.508,0 3.151,-9.905 3.182,9.905 2.407,0 -4.272,-12.001 -2.871,0 L -12.379,0 Z m -1.246,-0.311 -0.205,-1.886 c -0.45,0.202 -0.896,0.355 -1.337,0.456 -0.442,0.101 -0.88,0.153 -1.315,0.153 -0.634,0 -1.13,-0.119 -1.485,-0.352 -0.354,-0.234 -0.533,-0.559 -0.533,-0.983 0,-0.522 0.643,-1.11 1.926,-1.756 0.124,-0.063 0.219,-0.109 0.288,-0.144 1.199,-0.608 2.015,-1.185 2.453,-1.727 0.436,-0.544 0.655,-1.196 0.655,-1.954 0,-1.11 -0.421,-2.018 -1.266,-2.721 -0.845,-0.704 -1.954,-1.055 -3.329,-1.055 -0.563,0 -1.511,0.201 -2.846,0.608 -0.141,0.046 -0.248,0.081 -0.32,0.109 l 0.219,2.053 c 0.675,-0.332 1.24,-0.568 1.698,-0.709 0.456,-0.142 0.871,-0.211 1.249,-0.211 0.637,0 1.153,0.147 1.55,0.444 0.395,0.294 0.594,0.669 0.594,1.119 0,0.585 -0.643,1.228 -1.925,1.925 -0.09,0.049 -0.159,0.087 -0.202,0.11 -0.052,0.029 -0.133,0.069 -0.245,0.127 -0.951,0.507 -1.62,0.968 -2.009,1.384 -0.277,0.294 -0.488,0.625 -0.629,0.997 -0.144,0.372 -0.216,0.767 -0.216,1.182 0,1.02 0.398,1.842 1.196,2.467 0.796,0.626 1.86,0.937 3.194,0.937 0.519,0 1.274,-0.138 2.263,-0.415 0.26,-0.072 0.453,-0.127 0.577,-0.158 M -30.608,0 l 8.732,0 0,-1.851 -3.2,0 0,-10.15 -2.373,0 0,10.15 -3.159,0 0,1.851 z"
                 style="fill:#ffffff" />
            </g>
            <g
               id="g227"
               transform="translate(162.3499,462.3481)">
              <path
                 id="path229"
                 d="m 0,0 c -2.283,0.343 -4.567,-0.478 -6.851,-1.649 0.224,-8.143 2.596,-12.025 6.8,-13.435 4.236,1.396 6.626,5.211 6.851,13.387 C 4.533,-0.534 2.267,0.323 0,0"
                 style="fill:#ffffff;fill-rule:evenodd" />
            </g>
          </g>
        </g>
        <g
           id="g231"
           transform="matrix(1.25,0,0,-1.25,65.247321,882.98113)">
          <g
             id="g233"
             clip-path="url(#clipPath3625)">
            <g
               id="g235"
               transform="translate(156.584,445.058)">
              <path
                 id="path237"
                 d="M 0,0 5.717,5.717 C 7.638,3.795 9.56,1.874 11.481,-0.048 L 10.042,-2.442 5.717,1.884 1.439,-2.394 0,0 Z"
                 style="fill:#e3000f;fill-rule:evenodd" />
            </g>
            <g
               id="g239"
               transform="translate(172.0358,454.804)">
              <path
                 id="path241"
                 d="m 0,0 -9.249,9.248 -0.438,-0.438 -0.487,0.486 -9.249,-9.248 1.439,-1.439 8.249,8.249 8.296,-8.297 L 0,0 Z"
                 style="fill:#e3000f;fill-rule:evenodd" />
            </g>
            <g
               id="g243"
               transform="translate(170.0504,449.9072)">
              <path
                 id="path245"
                 d="m 0,0 -7.75,7.75 c -2.567,-2.568 -5.134,-5.135 -7.702,-7.702 l 1.439,-1.439 6.263,6.263 6.311,-6.311 L 0,0 Z"
                 style="fill:#e3000f;fill-rule:evenodd" />
            </g>
          </g>
        </g>
        <g
           id="g247"
           transform="matrix(1.25,0,0,-1.25,65.247321,882.98113)">
          <g
             id="g249"
             clip-path="url(#clipPath3645)">
            <g
               id="g251"
               transform="translate(162.4996,461.626)">
              <path
                 id="path253"
                 d="m 0,0 c -12.894,0 -23.35,-10.456 -23.35,-23.35 0,-12.894 10.456,-23.35 23.35,-23.35 12.894,0 23.35,10.456 23.35,23.35 C 23.35,-10.456 12.894,0 0,0 m 0,1.173 c 13.542,0 24.524,-10.982 24.524,-24.523 0,-13.542 -10.982,-24.524 -24.524,-24.524 -13.542,0 -24.523,10.982 -24.523,24.524 0,13.541 10.981,24.523 24.523,24.523"
                 style="fill:#ffffff;fill-rule:evenodd" />
            </g>
            <g
               id="g255"
               transform="translate(189.7392,428.0878)">
              <path
                 id="path257"
                 d="m 0,0 c -0.142,-0.371 -0.391,-0.599 -0.747,-0.684 -0.355,-0.085 -0.802,-0.025 -1.34,0.181 -0.539,0.207 -0.912,0.462 -1.118,0.762 -0.206,0.301 -0.237,0.637 -0.095,1.008 0.142,0.369 0.39,0.598 0.745,0.684 0.354,0.087 0.801,0.026 1.34,-0.181 C -0.679,1.564 -0.307,1.31 -0.1,1.007 0.108,0.704 0.141,0.368 0,0"
                 style="fill:#ffffff" />
            </g>
            <g
               id="g259"
               transform="translate(189.3005,428.2562)">
              <path
                 id="path261"
                 d="M 0,0 C 0.067,0.175 0.016,0.347 -0.152,0.515 -0.322,0.683 -0.604,0.843 -0.999,0.994 -1.394,1.146 -1.712,1.216 -1.952,1.203 -2.194,1.191 -2.347,1.097 -2.415,0.922 -2.481,0.75 -2.43,0.579 -2.263,0.412 -2.096,0.243 -1.821,0.085 -1.437,-0.062 -1.03,-0.218 -0.706,-0.291 -0.465,-0.281 -0.223,-0.271 -0.068,-0.176 0,0"
                 style="fill:#e3000f" />
            </g>
            <g
               id="g263"
               transform="translate(187.7295,433.2031)">
              <path
                 id="path265"
                 d="M 0,0 0.493,-0.167 C 0.421,-0.247 0.36,-0.336 0.31,-0.435 0.261,-0.533 0.223,-0.64 0.197,-0.753 0.128,-1.05 0.173,-1.302 0.334,-1.506 c 0.16,-0.204 0.425,-0.351 0.795,-0.439 -0.101,0.114 -0.168,0.243 -0.203,0.386 -0.035,0.143 -0.035,0.291 0.001,0.446 0.067,0.289 0.22,0.505 0.46,0.647 0.241,0.143 0.512,0.18 0.814,0.11 0.32,-0.074 0.563,-0.245 0.73,-0.511 C 3.099,-1.135 3.146,-1.428 3.073,-1.748 2.983,-2.135 2.775,-2.401 2.448,-2.547 2.122,-2.691 1.701,-2.704 1.184,-2.585 c -0.576,0.133 -0.993,0.366 -1.25,0.697 -0.257,0.331 -0.331,0.73 -0.223,1.198 0.027,0.118 0.065,0.235 0.113,0.35 C -0.128,-0.225 -0.069,-0.111 0,0"
                 style="fill:#ffffff" />
            </g>
            <g
               id="g267"
               transform="translate(189.6618,434.4926)">
              <path
                 id="path269"
                 d="m 0,0 c -0.119,-0.229 -0.261,-0.396 -0.426,-0.499 -0.163,-0.104 -0.346,-0.144 -0.547,-0.119 -0.289,0.035 -0.508,0.176 -0.655,0.423 -0.149,0.247 -0.2,0.559 -0.154,0.936 0.044,0.359 0.17,0.637 0.378,0.835 0.208,0.198 0.457,0.279 0.745,0.244 C -0.458,1.795 -0.292,1.709 -0.16,1.562 -0.027,1.414 0.057,1.222 0.09,0.985 0.193,1.17 0.324,1.307 0.484,1.397 0.642,1.487 0.815,1.521 1.001,1.498 1.256,1.467 1.449,1.336 1.58,1.107 1.711,0.878 1.756,0.589 1.713,0.242 1.674,-0.077 1.565,-0.326 1.388,-0.504 1.211,-0.683 1,-0.757 0.757,-0.727 0.579,-0.706 0.423,-0.631 0.29,-0.504 0.158,-0.377 0.061,-0.209 0,0"
                 style="fill:#ffffff" />
            </g>
            <g
               id="g271"
               transform="translate(189.4935,435.059)">
              <path
                 id="path273"
                 d="M 0,0 C -0.049,0.192 -0.118,0.341 -0.209,0.447 -0.301,0.552 -0.411,0.613 -0.538,0.629 -0.689,0.648 -0.823,0.607 -0.941,0.505 -1.059,0.404 -1.128,0.271 -1.149,0.103 c -0.021,-0.17 0.014,-0.317 0.104,-0.441 0.09,-0.123 0.213,-0.194 0.371,-0.214 0.124,-0.015 0.242,0.025 0.357,0.119 C -0.202,-0.339 -0.096,-0.194 0,0"
                 style="fill:#e3000f" />
            </g>
            <g
               id="g275"
               transform="translate(189.8957,434.9259)">
              <path
                 id="path277"
                 d="M 0,0 C 0.063,-0.171 0.138,-0.304 0.228,-0.399 0.319,-0.493 0.42,-0.547 0.532,-0.561 0.66,-0.577 0.772,-0.544 0.869,-0.462 0.965,-0.38 1.022,-0.268 1.04,-0.128 1.06,0.035 1.032,0.173 0.956,0.285 0.88,0.398 0.773,0.463 0.636,0.48 0.516,0.495 0.404,0.462 0.3,0.383 0.195,0.304 0.095,0.176 0,0"
                 style="fill:#e3000f" />
            </g>
            <g
               id="g279"
               transform="translate(191.5258,438.205)">
              <path
                 id="path281"
                 d="M 0,0 -0.009,-0.532 -3.4,-0.473 -3.389,0.143 -0.693,0.096 -1.136,0.695 -0.701,1.005 0,0 Z"
                 style="fill:#ffffff" />
            </g>
            <g
               id="g283"
               transform="translate(190.8596,444.518)">
              <path
                 id="path285"
                 d="m 0,0 0.471,-2.422 -0.514,-0.1 -0.172,0.888 -2.816,-0.548 -0.128,0.659 2.816,0.547 L -0.513,-0.1 0,0 Z"
                 style="fill:#ffffff" />
            </g>
            <g
               id="g287"
               transform="translate(190.4853,446.0606)">
              <path
                 id="path289"
                 d="M 0,0 0.184,-0.642 -3.076,-1.577 -3.26,-0.935 0,0 Z"
                 style="fill:#ffffff" />
            </g>
            <g
               id="g291"
               transform="translate(189.5299,448.9728)">
              <path
                 id="path293"
                 d="M 0,0 0.674,-1.959 0.214,-2.117 -0.243,-0.79 -1.093,-1.083 -0.66,-2.341 -1.132,-2.503 -1.565,-1.245 -2.504,-1.568 -2.03,-2.943 -2.515,-3.11 -3.206,-1.104 0,0 Z"
                 style="fill:#ffffff" />
            </g>
            <g
               id="g295"
               transform="translate(187.9202,452.3125)">
              <path
                 id="path297"
                 d="m 0,0 0.303,-0.595 -1.318,-0.672 1.885,-0.44 0.348,-0.683 -2.037,0.532 -0.925,-2.188 -0.384,0.752 0.856,1.896 -1.446,-0.737 -0.303,0.596 L 0,0 Z"
                 style="fill:#ffffff" />
            </g>
            <g
               id="g299"
               transform="translate(187.0947,453.616)">
              <path
                 id="path301"
                 d="m 0,0 -0.471,-0.257 c -0.005,0.019 -0.013,0.044 -0.024,0.078 -0.102,0.344 -0.209,0.593 -0.321,0.746 -0.223,0.307 -0.5,0.485 -0.834,0.537 C -1.983,1.156 -2.302,1.071 -2.606,0.851 -2.896,0.64 -3.067,0.374 -3.117,0.057 c -0.051,-0.317 0.032,-0.625 0.247,-0.921 0.048,-0.066 0.141,-0.149 0.277,-0.247 0.029,-0.022 0.05,-0.038 0.064,-0.048 l 0.702,0.507 -0.369,0.508 0.388,0.282 0.739,-1.017 -1.417,-1.03 c -0.214,0.154 -0.382,0.288 -0.504,0.402 -0.122,0.113 -0.226,0.23 -0.315,0.351 -0.346,0.477 -0.492,0.944 -0.438,1.403 0.054,0.459 0.3,0.848 0.737,1.166 0.446,0.323 0.899,0.439 1.362,0.346 0.461,-0.094 0.87,-0.385 1.225,-0.874 C -0.333,0.768 -0.232,0.563 -0.113,0.269 -0.064,0.15 -0.026,0.061 0,0"
                 style="fill:#ffffff" />
            </g>
            <g
               id="g303"
               transform="translate(184.3575,457.35)">
              <path
                 id="path305"
                 d="M 0,0 0.438,-0.504 -2.121,-2.729 -2.559,-2.225 0,0 Z"
                 style="fill:#ffffff" />
            </g>
            <g
               id="g307"
               transform="translate(181.4833,460.2232)">
              <path
                 id="path309"
                 d="m 0,0 0.614,-0.573 -0.705,-2.582 c -0.021,-0.07 -0.053,-0.157 -0.096,-0.26 -0.044,-0.102 -0.097,-0.218 -0.159,-0.344 0.089,0.136 0.174,0.257 0.254,0.363 0.08,0.106 0.153,0.193 0.216,0.262 L 1.63,-1.52 2.073,-1.933 -0.24,-4.413 -0.845,-3.849 -0.13,-1.2 c 0.017,0.067 0.046,0.148 0.089,0.242 0.044,0.096 0.097,0.204 0.164,0.324 C 0.007,-0.797 -0.095,-0.935 -0.181,-1.05 -0.267,-1.164 -0.33,-1.243 -0.369,-1.284 L -1.869,-2.893 -2.313,-2.48 0,0 Z"
                 style="fill:#ffffff" />
            </g>
            <g
               id="g311"
               transform="translate(180.0501,461.4178)">
              <path
                 id="path313"
                 d="M 0,0 0.526,-0.411 -1.561,-3.083 -2.088,-2.672 0,0 Z"
                 style="fill:#ffffff" />
            </g>
            <g
               id="g315"
               transform="translate(177.2972,463.2666)">
              <path
                 id="path317"
                 d="M 0,0 1.757,-1.098 1.499,-1.511 0.308,-0.767 -0.168,-1.53 0.96,-2.235 0.696,-2.657 -0.433,-1.952 -0.959,-2.795 0.275,-3.565 0.003,-4 -1.797,-2.876 0,0 Z"
                 style="fill:#ffffff" />
            </g>
            <g
               id="g319"
               transform="translate(171.9149,465.7718)">
              <path
                 id="path321"
                 d="M 0,0 0.784,-0.301 1.098,-2.959 C 1.104,-3.032 1.107,-3.124 1.105,-3.237 1.104,-3.348 1.098,-3.474 1.087,-3.615 c 0.031,0.16 0.065,0.304 0.1,0.432 0.034,0.128 0.069,0.236 0.102,0.323 l 0.792,2.061 0.565,-0.217 -1.215,-3.166 -0.773,0.297 -0.329,2.724 c -0.01,0.068 -0.012,0.154 -0.008,0.258 0.004,0.105 0.014,0.225 0.03,0.361 C 0.304,-0.736 0.262,-0.903 0.225,-1.041 0.188,-1.18 0.159,-1.276 0.139,-1.329 L -0.65,-3.383 -1.215,-3.166 0,0 Z"
                 style="fill:#ffffff" />
            </g>
            <g
               id="g323"
               transform="translate(170.0664,466.3101)">
              <path
                 id="path325"
                 d="M 0,0 0.645,-0.173 -0.232,-3.448 -0.878,-3.276 0,0 Z"
                 style="fill:#ffffff" />
            </g>
            <g
               id="g327"
               transform="translate(166.9091,466.9927)">
              <path
                 id="path329"
                 d="M 0,0 2.04,-0.36 1.955,-0.839 0.573,-0.596 0.417,-1.481 1.727,-1.712 1.64,-2.203 0.331,-1.972 0.158,-2.95 1.59,-3.203 1.501,-3.708 -0.589,-3.34 0,0 Z"
                 style="fill:#ffffff" />
            </g>
            <g
               id="g331"
               transform="translate(163.4364,467.3195)">
              <path
                 id="path333"
                 d="M 0,0 1.108,-0.077 C 1.52,-0.106 1.824,-0.2 2.02,-0.36 2.216,-0.52 2.305,-0.745 2.284,-1.035 2.269,-1.253 2.195,-1.428 2.063,-1.562 1.931,-1.696 1.75,-1.777 1.52,-1.81 1.614,-1.848 1.689,-1.901 1.745,-1.969 1.799,-2.037 1.857,-2.164 1.917,-2.352 L 2.304,-3.56 1.601,-3.511 1.292,-2.461 C 1.249,-2.31 1.186,-2.202 1.105,-2.138 1.023,-2.074 0.898,-2.036 0.73,-2.025 L 0.52,-2.01 0.421,-3.429 -0.237,-3.383 0,0 Z"
                 style="fill:#ffffff" />
            </g>
            <g
               id="g335"
               transform="translate(164.0608,466.8022)">
              <path
                 id="path337"
                 d="m 0,0 -0.071,-1.019 0.343,-0.024 c 0.216,-0.015 0.385,0.018 0.509,0.098 0.124,0.081 0.191,0.203 0.202,0.367 0.013,0.174 -0.037,0.307 -0.147,0.396 -0.112,0.091 -0.292,0.144 -0.543,0.162 L 0,0 Z"
                 style="fill:#e3000f" />
            </g>
            <g
               id="g339"
               transform="translate(160.2167,467.2624)">
              <path
                 id="path341"
                 d="M 0,0 2.071,0.036 2.08,-0.451 0.676,-0.475 0.692,-1.375 2.022,-1.351 2.031,-1.85 0.701,-1.873 0.718,-2.866 2.172,-2.84 2.181,-3.354 0.059,-3.391 0,0 Z"
                 style="fill:#ffffff" />
            </g>
            <g
               id="g343"
               transform="translate(156.0204,466.6266)">
              <path
                 id="path345"
                 d="M 0,0 0.698,0.123 2.061,-2.479 2.46,0.434 3.13,0.552 2.53,-2.997 1.731,-3.138 0,0 Z"
                 style="fill:#ffffff" />
            </g>
            <g
               id="g347"
               transform="translate(153.1201,465.8353)">
              <path
                 id="path349"
                 d="M 0,0 2.383,0.639 2.519,0.133 1.645,-0.101 2.388,-2.871 1.74,-3.045 0.998,-0.274 0.135,-0.505 0,0 Z"
                 style="fill:#ffffff" />
            </g>
            <g
               id="g351"
               transform="translate(150.0296,464.5262)">
              <path
                 id="path353"
                 d="M 0,0 1.014,0.451 C 1.392,0.62 1.704,0.68 1.953,0.63 2.201,0.581 2.385,0.424 2.503,0.158 2.592,-0.041 2.609,-0.23 2.555,-0.411 2.501,-0.591 2.379,-0.748 2.191,-0.884 c 0.102,0.01 0.193,-0.002 0.274,-0.036 0.08,-0.034 0.19,-0.119 0.332,-0.257 L 3.705,-2.062 3.063,-2.349 2.296,-1.566 C 2.187,-1.453 2.081,-1.387 1.979,-1.369 1.877,-1.352 1.749,-1.377 1.595,-1.445 L 1.403,-1.531 1.981,-2.83 1.379,-3.098 0,0 Z"
                 style="fill:#ffffff" />
            </g>
            <g
               id="g355"
               transform="translate(150.8238,464.3626)">
              <path
                 id="path357"
                 d="m 0,0 0.415,-0.933 0.315,0.14 c 0.197,0.088 0.332,0.197 0.403,0.325 0.072,0.13 0.074,0.27 0.007,0.419 C 1.069,0.111 0.963,0.205 0.823,0.232 0.683,0.259 0.498,0.222 0.268,0.119 L 0,0 Z"
                 style="fill:#e3000f" />
            </g>
            <g
               id="g359"
               transform="translate(147.6415,463.2861)">
              <path
                 id="path361"
                 d="M 0,0 C 0.431,0.249 0.85,0.309 1.256,0.179 1.662,0.05 2.002,-0.252 2.277,-0.727 2.552,-1.204 2.644,-1.65 2.554,-2.064 2.464,-2.478 2.201,-2.81 1.767,-3.061 1.334,-3.311 0.917,-3.371 0.513,-3.242 0.11,-3.113 -0.229,-2.81 -0.505,-2.333 -0.781,-1.855 -0.874,-1.409 -0.783,-0.995 -0.693,-0.581 -0.432,-0.249 0,0"
                 style="fill:#ffffff" />
            </g>
            <g
               id="g363"
               transform="translate(147.8932,462.8502)">
              <path
                 id="path365"
                 d="m 0,0 c -0.24,-0.138 -0.376,-0.349 -0.409,-0.631 -0.032,-0.283 0.046,-0.588 0.237,-0.918 0.191,-0.331 0.416,-0.553 0.677,-0.669 0.261,-0.114 0.513,-0.102 0.754,0.037 0.24,0.139 0.377,0.352 0.41,0.637 0.032,0.285 -0.048,0.591 -0.238,0.921 C 1.242,-0.295 1.017,-0.074 0.755,0.039 0.493,0.152 0.241,0.139 0,0"
                 style="fill:#e3000f" />
            </g>
            <g
               id="g367"
               transform="translate(143.6961,460.419)">
              <path
                 id="path369"
                 d="M 0,0 0.793,0.62 C 1.139,0.89 1.449,1.023 1.722,1.017 1.995,1.011 2.242,0.867 2.462,0.585 2.666,0.324 2.737,0.053 2.675,-0.226 2.614,-0.507 2.423,-0.772 2.105,-1.02 L 1.819,-1.244 2.614,-2.261 2.088,-2.672 0,0 Z"
                 style="fill:#ffffff" />
            </g>
            <g
               id="g371"
               transform="translate(144.5164,460.4541)">
              <path
                 id="path373"
                 d="m 0,0 0.705,-0.903 0.216,0.17 C 1.093,-0.6 1.195,-0.458 1.226,-0.31 1.258,-0.161 1.216,-0.014 1.104,0.13 0.99,0.275 0.859,0.353 0.71,0.364 0.562,0.375 0.407,0.318 0.246,0.193 L 0,0 Z"
                 style="fill:#e3000f" />
            </g>
            <g
               id="g375"
               transform="translate(142.8583,459.53)">
              <path
                 id="path377"
                 d="M 0,0 0.321,-0.429 C 0.189,-0.474 0.067,-0.528 -0.043,-0.593 -0.154,-0.657 -0.254,-0.73 -0.344,-0.814 c -0.131,-0.123 -0.211,-0.243 -0.239,-0.359 -0.029,-0.117 -0.003,-0.219 0.079,-0.306 0.1,-0.108 0.347,-0.106 0.736,0.008 0.038,0.011 0.067,0.02 0.087,0.026 0.366,0.105 0.645,0.143 0.84,0.116 C 1.354,-1.358 1.525,-1.45 1.671,-1.607 1.885,-1.836 1.973,-2.105 1.934,-2.413 1.895,-2.721 1.733,-3.008 1.449,-3.273 1.333,-3.381 1.098,-3.522 0.744,-3.696 0.706,-3.713 0.677,-3.727 0.657,-3.734 l -0.35,0.466 c 0.203,0.061 0.365,0.121 0.487,0.18 0.122,0.059 0.221,0.125 0.299,0.197 0.131,0.123 0.21,0.253 0.235,0.391 0.025,0.137 -0.006,0.253 -0.093,0.346 -0.113,0.121 -0.37,0.13 -0.769,0.027 C 0.438,-2.134 0.416,-2.14 0.403,-2.144 0.387,-2.148 0.362,-2.155 0.328,-2.165 0.034,-2.243 -0.194,-2.277 -0.354,-2.266 c -0.114,0.008 -0.221,0.036 -0.322,0.085 -0.102,0.049 -0.193,0.117 -0.273,0.203 -0.196,0.211 -0.272,0.457 -0.228,0.74 0.044,0.283 0.204,0.552 0.48,0.809 0.107,0.1 0.29,0.217 0.547,0.351 C -0.082,-0.043 -0.032,-0.017 0,0"
                 style="fill:#ffffff" />
            </g>
            <g
               id="g379"
               transform="translate(137.7621,453.6028)">
              <path
                 id="path381"
                 d="M 0,0 0.571,0.786 C 0.74,1.019 0.901,1.206 1.053,1.348 1.205,1.49 1.353,1.589 1.497,1.647 1.765,1.753 2.032,1.784 2.3,1.74 2.567,1.697 2.833,1.579 3.096,1.387 3.361,1.195 3.553,0.979 3.676,0.737 3.798,0.497 3.849,0.231 3.828,-0.059 3.818,-0.223 3.77,-0.402 3.68,-0.596 3.591,-0.79 3.459,-1.008 3.283,-1.25 L 2.743,-1.993 0,0 Z"
                 style="fill:#ffffff" />
            </g>
            <g
               id="g383"
               transform="translate(138.5648,453.8513)">
              <path
                 id="path385"
                 d="m 0,0 1.913,-1.39 0.227,0.312 c 0.221,0.304 0.308,0.602 0.262,0.893 C 2.356,0.106 2.181,0.362 1.877,0.582 1.568,0.807 1.272,0.894 0.987,0.844 0.702,0.795 0.445,0.612 0.216,0.297 L 0,0 Z"
                 style="fill:#e3000f" />
            </g>
            <g
               id="g387"
               transform="translate(135.7883,449.8572)">
              <path
                 id="path389"
                 d="M 0,0 0.394,0.742 3.071,0.729 C 3.144,0.726 3.236,0.718 3.347,0.703 3.457,0.688 3.582,0.666 3.72,0.638 3.566,0.689 3.427,0.74 3.304,0.79 3.181,0.84 3.078,0.888 2.995,0.931 L 1.046,1.968 1.331,2.503 4.325,0.911 3.936,0.18 1.193,0.185 C 1.124,0.184 1.038,0.191 0.935,0.208 0.832,0.225 0.714,0.25 0.58,0.283 0.768,0.212 0.928,0.151 1.061,0.097 1.194,0.043 1.286,0.003 1.336,-0.024 L 3.279,-1.057 2.994,-1.592 0,0 Z"
                 style="fill:#ffffff" />
            </g>
            <g
               id="g391"
               transform="translate(134.4178,445.9531)">
              <path
                 id="path393"
                 d="m 0,0 0.217,0.632 1.88,-0.648 C 2.408,-0.123 2.655,-0.149 2.836,-0.094 3.017,-0.04 3.146,0.099 3.222,0.321 3.3,0.546 3.28,0.742 3.164,0.909 3.048,1.078 2.836,1.214 2.531,1.319 L 0.674,1.959 0.879,2.554 2.741,1.913 C 3.21,1.751 3.526,1.523 3.687,1.228 3.849,0.932 3.856,0.571 3.709,0.143 3.564,-0.276 3.339,-0.553 3.032,-0.686 2.726,-0.819 2.344,-0.807 1.889,-0.65 L 0,0 Z"
                 style="fill:#ffffff" />
            </g>
            <g
               id="g395"
               transform="translate(135.4255,441.558)">
              <path
                 id="path397"
                 d="M 0,0 0.175,1.243 0.668,1.174 0.494,-0.069 0,0 Z"
                 style="fill:#ffffff" />
            </g>
            <g
               id="g399"
               transform="translate(133.466,437.9194)">
              <path
                 id="path401"
                 d="M 0,0 0.029,0.839 2.441,2.001 C 2.507,2.031 2.594,2.064 2.7,2.099 2.806,2.134 2.928,2.169 3.064,2.204 2.903,2.182 2.756,2.167 2.623,2.159 2.491,2.15 2.378,2.147 2.284,2.15 L 0.078,2.227 0.099,2.833 3.488,2.715 3.459,1.887 0.991,0.689 C 0.929,0.658 0.849,0.627 0.749,0.597 0.649,0.567 0.532,0.537 0.398,0.509 c 0.199,0.019 0.37,0.033 0.513,0.043 0.143,0.01 0.243,0.014 0.3,0.012 L 3.41,0.487 3.389,-0.118 0,0 Z"
                 style="fill:#ffffff" />
            </g>
            <g
               id="g403"
               transform="translate(133.6799,434.4359)">
              <path
                 id="path405"
                 d="M 0,0 -0.078,1.108 C -0.106,1.52 -0.056,1.834 0.075,2.051 0.206,2.267 0.417,2.386 0.707,2.406 0.925,2.421 1.109,2.373 1.259,2.26 1.41,2.148 1.517,1.98 1.58,1.757 1.605,1.856 1.648,1.937 1.707,2.001 1.766,2.065 1.884,2.14 2.062,2.226 L 3.205,2.777 3.254,2.075 2.257,1.622 C 2.114,1.558 2.015,1.481 1.964,1.392 1.912,1.301 1.892,1.173 1.903,1.004 L 1.918,0.795 3.337,0.894 3.383,0.237 0,0 Z"
                 style="fill:#ffffff" />
            </g>
            <g
               id="g407"
               transform="translate(134.1053,435.1262)">
              <path
                 id="path409"
                 d="M 0,0 1.019,0.071 0.995,0.414 C 0.98,0.63 0.923,0.794 0.827,0.905 0.73,1.016 0.599,1.066 0.436,1.054 0.261,1.042 0.137,0.975 0.064,0.853 -0.01,0.73 -0.038,0.544 -0.02,0.293 L 0,0 Z"
                 style="fill:#e3000f" />
            </g>
            <g
               id="g411"
               transform="translate(134.5062,430.422)">
              <path
                 id="path413"
                 d="M 0,0 -0.139,0.653 1.805,1.067 C 2.127,1.135 2.352,1.239 2.479,1.38 2.607,1.519 2.646,1.705 2.597,1.935 2.547,2.167 2.43,2.325 2.244,2.409 2.057,2.493 1.806,2.502 1.49,2.434 L -0.431,2.026 -0.562,2.642 1.364,3.051 C 1.849,3.155 2.238,3.121 2.528,2.951 2.819,2.781 3.011,2.476 3.105,2.033 3.198,1.599 3.147,1.246 2.953,0.974 2.758,0.702 2.425,0.515 1.954,0.415 L 0,0 Z"
                 style="fill:#ffffff" />
            </g>
            <g
               id="g415"
               transform="translate(135.712,427.0714)">
              <path
                 id="path417"
                 d="M 0,0 -0.884,2.303 -0.396,2.491 -0.072,1.647 2.606,2.675 2.846,2.049 0.168,1.021 0.488,0.187 0,0 Z"
                 style="fill:#ffffff" />
            </g>
            <g
               id="g419"
               transform="translate(190.3299,431.5209)">
              <path
                 id="path421"
                 d="M 0,0 C 0.038,0.164 0.012,0.311 -0.077,0.44 -0.166,0.569 -0.303,0.655 -0.485,0.697 -0.674,0.741 -0.838,0.728 -0.974,0.657 -1.112,0.587 -1.198,0.472 -1.235,0.314 -1.273,0.15 -1.245,0.005 -1.151,-0.121 c 0.095,-0.125 0.24,-0.21 0.437,-0.256 0.171,-0.039 0.324,-0.023 0.459,0.049 C -0.118,-0.255 -0.034,-0.146 0,0"
                 style="fill:#e3000f" />
            </g>
          </g>
        </g>
      </g>
    </g>
  </g>
</svg>
